<svg width="24" height="24" viewBox="0 0 24 24" fill="none" xmlns="http://www.w3.org/2000/svg">
<g opacity="0.8">
<path d="M12.12 12.78C12.0403 12.77 11.9597 12.77 11.88 12.78C11.0319 12.7515 10.2282 12.3944 9.63854 11.7842C9.04889 11.174 8.71951 10.3585 8.71999 9.51C8.71999 7.7 10.18 6.23 12 6.23C12.8594 6.22851 13.685 6.56481 14.2988 7.1664C14.9126 7.768 15.2654 8.58669 15.2811 9.44599C15.2969 10.3053 14.9743 11.1364 14.383 11.76C13.7916 12.3837 12.9789 12.75 12.12 12.78V12.78ZM18.74 19.38C16.9023 21.0691 14.496 22.0044 12 22C9.39999 22 7.03999 21.01 5.25999 19.38C5.35999 18.44 5.95999 17.52 7.02999 16.8C9.76999 14.98 14.25 14.98 16.97 16.8C18.04 17.52 18.64 18.44 18.74 19.38V19.38Z" stroke="black" stroke-width="1.5" stroke-linecap="round" stroke-linejoin="round"/>
<path d="M12 22C17.523 22 22 17.523 22 12C22 6.477 17.523 2 12 2C6.477 2 2 6.477 2 12C2 17.523 6.477 22 12 22Z" stroke="black" stroke-width="1.5" stroke-linecap="round" stroke-linejoin="round"/>
</g>
</svg>
